<svg width="56" height="13" viewBox="0 0 56 13" fill="none" xmlns="http://www.w3.org/2000/svg">
<path d="M3.39258 11.2246H10.2305V13H0.703125V11.5586L7.32129 1.99609H0.74707V0.203125H10.0195V1.60938L3.39258 11.2246ZM19.626 7.28711H14.3701V11.2246H20.5137V13H12.1465V0.203125H20.4521V1.99609H14.3701V5.5293H19.626V7.28711ZM22.3242 13V0.203125H26.71C28.1572 0.203125 29.2588 0.493164 30.0146 1.07324C30.7705 1.65332 31.1484 2.51758 31.1484 3.66602C31.1484 4.25195 30.9902 4.7793 30.6738 5.24805C30.3574 5.7168 29.8945 6.08008 29.2852 6.33789C29.9766 6.52539 30.5098 6.87988 30.8848 7.40137C31.2656 7.91699 31.4561 8.53809 31.4561 9.26465C31.4561 10.4658 31.0693 11.3887 30.2959 12.0332C29.5283 12.6777 28.4268 13 26.9912 13H22.3242ZM24.5479 7.22559V11.2246H27.0176C27.7148 11.2246 28.2598 11.0518 28.6523 10.7061C29.0449 10.3604 29.2412 9.87988 29.2412 9.26465C29.2412 7.93457 28.5615 7.25488 27.2021 7.22559H24.5479ZM24.5479 5.59082H26.7275C27.4189 5.59082 27.958 5.43555 28.3447 5.125C28.7373 4.80859 28.9336 4.36328 28.9336 3.78906C28.9336 3.15625 28.752 2.69922 28.3887 2.41797C28.0312 2.13672 27.4717 1.99609 26.71 1.99609H24.5479V5.59082ZM38.3818 8.06934H35.9033V13H33.6797V0.203125H38.1797C39.6562 0.203125 40.7959 0.53418 41.5986 1.19629C42.4014 1.8584 42.8027 2.81641 42.8027 4.07031C42.8027 4.92578 42.5947 5.64355 42.1787 6.22363C41.7686 6.79785 41.1943 7.24023 40.4561 7.55078L43.3301 12.8857V13H40.9482L38.3818 8.06934ZM35.9033 6.28516H38.1885C38.9385 6.28516 39.5244 6.09766 39.9463 5.72266C40.3682 5.3418 40.5791 4.82324 40.5791 4.16699C40.5791 3.48145 40.3828 2.95117 39.9902 2.57617C39.6035 2.20117 39.0234 2.00781 38.25 1.99609H35.9033V6.28516ZM52.0752 10.0205H47.1182L46.0811 13H43.7695L48.6035 0.203125H50.5986L55.4414 13H53.1211L52.0752 10.0205ZM47.7422 8.22754H51.4512L49.5967 2.91895L47.7422 8.22754Z" fill="#4465F9"/>
</svg>
